<svg width="395" height="66" viewBox="0 0 395 66" fill="none" xmlns="http://www.w3.org/2000/svg">
<path d="M35.632 65.24C34.48 65.24 33.456 64.8133 32.56 63.96C31.7067 63.1493 30.96 61.8907 30.32 60.184C29.7227 58.4773 29.2533 56.3013 28.912 53.656C28.5707 50.968 28.336 47.832 28.208 44.248H17.2C15.3227 47.704 13.6373 50.3067 12.144 52.056C10.6507 53.8053 9.28533 54.9787 8.048 55.576C6.85333 56.1733 5.744 56.472 4.72 56.472C3.22667 56.472 2.16 56.1307 1.52 55.448C0.88 54.7653 0.56 53.976 0.56 53.08C0.56 52.7387 0.581333 52.4613 0.624 52.248C0.709333 51.992 0.794667 51.7573 0.88 51.544C2.07467 51.5013 3.20533 51.2453 4.272 50.776C5.38133 50.3067 6.46933 49.5387 7.536 48.472C8.60267 47.4053 9.73333 45.9973 10.928 44.248C12.1227 42.456 13.4027 40.2373 14.768 37.592C16.176 34.9467 17.7333 31.832 19.44 28.248C21.1893 24.664 23.1307 20.5253 25.264 15.832L24.944 15.192C24.3467 14.9787 23.5147 14.7653 22.448 14.552C21.3813 14.296 20.3147 14.168 19.248 14.168C16.432 14.168 14.2773 15.0213 12.784 16.728C11.2907 18.4347 10.5227 20.6747 10.48 23.448C10.48 24.6 10.608 25.7307 10.864 26.84C11.1627 27.9067 11.6533 28.9733 12.336 30.04C11.8667 30.296 11.3547 30.5093 10.8 30.68C10.2453 30.8507 9.69067 30.936 9.136 30.936C7.856 30.936 6.768 30.616 5.872 29.976C5.01867 29.2933 4.35733 28.3973 3.888 27.288C3.46133 26.136 3.26933 24.856 3.312 23.448C3.312 21.4 3.86667 19.416 4.976 17.496C6.08533 15.576 7.728 13.9973 9.904 12.76C12.08 11.48 14.768 10.84 17.968 10.84C18.992 10.84 20.2507 10.9467 21.744 11.16C23.28 11.3307 24.9013 11.544 26.608 11.8C28.3147 12.056 29.9573 12.2907 31.536 12.504C33.1147 12.6747 34.5013 12.76 35.696 12.76C35.696 14.3387 35.632 16.28 35.504 18.584C35.4187 20.888 35.312 23.4053 35.184 26.136C35.0987 28.824 35.0773 31.5973 35.12 34.456C35.12 37.3573 35.184 40.216 35.312 43.032C35.4827 45.8053 35.76 48.4293 36.144 50.904C36.528 53.3787 37.0613 55.576 37.744 57.496C38.4267 59.416 39.3013 60.9307 40.368 62.04C40.1547 62.5947 39.792 63.1067 39.28 63.576C38.8107 64.088 38.2773 64.4933 37.68 64.792C37.0827 65.0907 36.4 65.24 35.632 65.24ZM19.376 39.704H28.144C28.144 38.424 28.1653 36.696 28.208 34.52C28.2933 32.344 28.3787 29.9547 28.464 27.352C28.592 24.7067 28.72 22.0613 28.848 19.416H28.656C26.992 23.64 25.3067 27.48 23.6 30.936C21.936 34.3493 20.528 37.272 19.376 39.704ZM69.9865 34.584L65.7625 34.264C67.0425 33.24 68.2585 32.0027 69.4105 30.552C70.6052 29.1013 71.7145 27.5653 72.7385 25.944C73.8052 24.28 74.8078 22.616 75.7465 20.952C76.7278 19.288 77.6238 17.752 78.4345 16.344C79.2878 14.8933 80.0985 13.6987 80.8665 12.76C81.7625 11.6933 82.6158 10.8827 83.4265 10.328C84.2372 9.73067 85.2825 9.432 86.5625 9.432C87.8852 9.432 88.8878 9.77333 89.5705 10.456C90.2532 11.1387 90.5945 11.928 90.5945 12.824C90.5945 13.2507 90.5092 13.72 90.3385 14.232C90.2105 14.7013 89.9972 15.1067 89.6985 15.448C89.5705 15.32 89.4212 15.256 89.2505 15.256C89.1225 15.2133 88.9945 15.192 88.8665 15.192C87.9278 15.1067 86.9252 15.512 85.8585 16.408C84.8345 17.2613 83.7892 18.4133 82.7225 19.864C81.6558 21.272 80.5465 22.7867 79.3945 24.408C78.2852 25.9867 77.1972 27.5227 76.1305 29.016C75.0638 30.5093 73.9972 31.768 72.9305 32.792C71.9065 33.816 70.9252 34.4133 69.9865 34.584ZM82.0185 62.488C80.5252 62.488 79.2878 62.0827 78.3065 61.272C77.3678 60.504 76.5145 59.416 75.7465 58.008C75.1918 57.0267 74.5945 55.768 73.9545 54.232C73.3145 52.6533 72.6532 50.968 71.9705 49.176C71.3305 47.3413 70.6478 45.5067 69.9225 43.672C69.2398 41.7947 68.5358 40.0453 67.8105 38.424C67.1278 36.76 66.4452 35.3733 65.7625 34.264L70.9465 33.432C71.6718 33.944 72.3972 34.8827 73.1225 36.248C73.8905 37.6133 74.6585 39.2133 75.4265 41.048C76.1945 42.8827 77.0052 44.7813 77.8585 46.744C78.7118 48.664 79.6078 50.4987 80.5465 52.248C81.5278 53.9973 82.5518 55.448 83.6185 56.6C84.7278 57.7947 85.9012 58.5413 87.1385 58.84C86.7972 59.864 86.1785 60.7173 85.2825 61.4C84.4292 62.1253 83.3412 62.488 82.0185 62.488ZM54.6265 56.408C53.8158 56.408 53.0478 56.2587 52.3225 55.96C51.6398 55.6613 51.1918 55.256 50.9785 54.744C51.4905 54.4027 51.9385 53.976 52.3225 53.464C52.7065 52.952 53.0265 52.312 53.2825 51.544C53.5812 50.7333 53.8372 49.752 54.0505 48.6L59.0425 21.976C59.4265 19.9707 60.0025 18.3067 60.7705 16.984C61.5385 15.6613 62.5412 14.6587 63.7785 13.976C65.0585 13.2507 66.6158 12.8453 68.4505 12.76L61.1545 50.008C60.8558 51.5013 60.4292 52.7387 59.8745 53.72C59.3625 54.6587 58.6798 55.3413 57.8265 55.768C56.9732 56.1947 55.9065 56.408 54.6265 56.408ZM48.8025 30.04C47.5225 30.04 46.4132 29.7413 45.4745 29.144C44.5785 28.504 43.8745 27.6293 43.3625 26.52C42.8505 25.4107 42.5945 24.1093 42.5945 22.616C42.5945 20.568 43.0852 18.584 44.0665 16.664C45.0905 14.7013 46.6265 13.1013 48.6745 11.864C50.7225 10.6267 53.3252 10.008 56.4825 10.008C57.8052 10.008 58.9998 10.136 60.0665 10.392C61.1758 10.6053 62.1998 10.904 63.1385 11.288C64.1198 11.6293 65.0372 11.9493 65.8905 12.248C66.7438 12.504 67.5758 12.6747 68.3865 12.76L62.6905 14.744L62.5625 14.552C62.3065 14.3813 61.8585 14.1467 61.2185 13.848C60.5785 13.5493 59.5118 13.4 58.0185 13.4C55.4585 13.4 53.4532 14.1893 52.0025 15.768C50.5945 17.3467 49.8905 19.544 49.8905 22.36C49.8905 23.5547 50.0398 24.728 50.3385 25.88C50.6372 27.032 51.0852 28.1627 51.6825 29.272C51.2558 29.528 50.7865 29.72 50.2745 29.848C49.8052 29.976 49.3145 30.04 48.8025 30.04ZM123.444 65.24C122.293 65.24 121.269 64.8133 120.373 63.96C119.519 63.1493 118.773 61.8907 118.132 60.184C117.535 58.4773 117.066 56.3013 116.725 53.656C116.383 50.968 116.149 47.832 116.021 44.248H105.013C103.135 47.704 101.45 50.3067 99.9565 52.056C98.4632 53.8053 97.0978 54.9787 95.8605 55.576C94.6658 56.1733 93.5565 56.472 92.5325 56.472C91.0392 56.472 89.9725 56.1307 89.3325 55.448C88.6925 54.7653 88.3725 53.976 88.3725 53.08C88.3725 52.7387 88.3938 52.4613 88.4365 52.248C88.5218 51.992 88.6072 51.7573 88.6925 51.544C89.8872 51.5013 91.0178 51.2453 92.0845 50.776C93.1938 50.3067 94.2818 49.5387 95.3485 48.472C96.4152 47.4053 97.5458 45.9973 98.7405 44.248C99.9352 42.456 101.215 40.2373 102.581 37.592C103.989 34.9467 105.546 31.832 107.253 28.248C109.002 24.664 110.943 20.5253 113.077 15.832L112.757 15.192C112.159 14.9787 111.327 14.7653 110.261 14.552C109.194 14.296 108.127 14.168 107.061 14.168C104.245 14.168 102.09 15.0213 100.597 16.728C99.1032 18.4347 98.3352 20.6747 98.2925 23.448C98.2925 24.6 98.4205 25.7307 98.6765 26.84C98.9752 27.9067 99.4658 28.9733 100.149 30.04C99.6792 30.296 99.1672 30.5093 98.6125 30.68C98.0578 30.8507 97.5032 30.936 96.9485 30.936C95.6685 30.936 94.5805 30.616 93.6845 29.976C92.8312 29.2933 92.1698 28.3973 91.7005 27.288C91.2738 26.136 91.0818 24.856 91.1245 23.448C91.1245 21.4 91.6792 19.416 92.7885 17.496C93.8978 15.576 95.5405 13.9973 97.7165 12.76C99.8925 11.48 102.581 10.84 105.781 10.84C106.805 10.84 108.063 10.9467 109.557 11.16C111.093 11.3307 112.714 11.544 114.421 11.8C116.127 12.056 117.77 12.2907 119.349 12.504C120.927 12.6747 122.314 12.76 123.509 12.76C123.509 14.3387 123.445 16.28 123.317 18.584C123.231 20.888 123.125 23.4053 122.997 26.136C122.911 28.824 122.89 31.5973 122.933 34.456C122.933 37.3573 122.997 40.216 123.125 43.032C123.295 45.8053 123.573 48.4293 123.957 50.904C124.341 53.3787 124.874 55.576 125.557 57.496C126.239 59.416 127.114 60.9307 128.181 62.04C127.967 62.5947 127.605 63.1067 127.093 63.576C126.623 64.088 126.09 64.4933 125.493 64.792C124.895 65.0907 124.213 65.24 123.444 65.24ZM107.189 39.704H115.957C115.957 38.424 115.978 36.696 116.021 34.52C116.106 32.344 116.191 29.9547 116.277 27.352C116.405 24.7067 116.533 22.0613 116.661 19.416H116.469C114.805 23.64 113.119 27.48 111.413 30.936C109.749 34.3493 108.341 37.272 107.189 39.704ZM170.038 55.064L166.582 48.792C167.905 41.624 169.142 35.4587 170.294 30.296C171.446 25.1333 172.555 20.7813 173.622 17.24C174.689 13.6987 175.734 10.84 176.758 8.664C177.782 6.44533 178.806 4.76 179.83 3.608C180.854 2.456 181.857 1.688 182.838 1.304C183.862 0.877331 184.907 0.663998 185.974 0.663998C187.553 0.663998 188.79 1.15466 189.686 2.136C190.582 3.11733 191.03 4.26933 191.03 5.592C191.03 6.31733 190.859 6.95733 190.518 7.512C189.921 7.34133 189.366 7.256 188.854 7.256C187.659 7.256 186.55 7.512 185.526 8.024C184.545 8.49333 183.606 9.368 182.71 10.648C181.814 11.8853 180.918 13.6347 180.022 15.896C179.169 18.1573 178.251 21.0587 177.27 24.6C176.289 28.0987 175.201 32.3653 174.006 37.4C172.854 42.392 171.531 48.28 170.038 55.064ZM137.782 56.472C136.374 56.472 135.222 56.0667 134.326 55.256C133.473 54.4453 133.046 53.4853 133.046 52.376C133.046 52.0773 133.089 51.8 133.174 51.544C134.539 51.5013 135.755 51.224 136.822 50.712C137.889 50.1573 138.849 49.304 139.702 48.152C140.598 47 141.409 45.464 142.134 43.544C142.902 41.5813 143.67 39.1707 144.438 36.312C145.249 33.4533 146.081 30.0827 146.934 26.2C147.787 22.3173 148.726 17.8373 149.75 12.76L153.27 18.52C152.374 24.3653 151.478 29.3787 150.582 33.56C149.729 37.6987 148.854 41.176 147.958 43.992C147.105 46.7653 146.251 49.0053 145.398 50.712C144.545 52.376 143.691 53.6133 142.838 54.424C141.985 55.2347 141.131 55.768 140.278 56.024C139.467 56.3227 138.635 56.472 137.782 56.472ZM135.478 30.168C134.241 30.168 133.174 29.8907 132.278 29.336C131.382 28.7387 130.699 27.9067 130.23 26.84C129.761 25.7307 129.526 24.4507 129.526 23C129.526 21.5067 129.803 20.0347 130.358 18.584C130.955 17.1333 131.83 15.832 132.982 14.68C134.177 13.4853 135.649 12.5467 137.398 11.864C139.19 11.1387 141.302 10.776 143.734 10.776C145.611 10.776 147.361 10.9253 148.982 11.224C150.603 11.5227 152.182 11.8427 153.718 12.184C155.297 12.4827 156.918 12.6747 158.582 12.76L154.87 16.344L149.43 15.192L149.11 14.616C147.873 14.2747 146.486 14.104 144.95 14.104C142.433 14.104 140.449 14.872 138.998 16.408C137.547 17.944 136.822 20.184 136.822 23.128C136.822 24.2373 136.95 25.304 137.206 26.328C137.462 27.352 137.825 28.376 138.294 29.4C137.867 29.6987 137.398 29.912 136.886 30.04C136.374 30.1253 135.905 30.168 135.478 30.168ZM166.966 55.64C166.07 55.64 165.281 55.4267 164.598 55C163.958 54.616 163.425 54.0613 162.998 53.336C162.571 52.568 162.187 51.6293 161.846 50.52L153.398 20.824L149.494 12.76H158.582L167.734 45.72L170.038 55.064C169.569 55.2347 169.057 55.3627 168.502 55.448C167.947 55.576 167.435 55.64 166.966 55.64Z" fill="#0077FF"/>
<path d="M230.904 55.64C230.008 55.64 229.218 55.4267 228.536 55C227.896 54.616 227.362 54.0613 226.936 53.336C226.509 52.568 226.125 51.6293 225.784 50.52L217.208 19.928L213.688 12.76H222.52L231.672 45.72L233.976 55C233.378 55.2133 232.824 55.3627 232.312 55.448C231.842 55.576 231.373 55.64 230.904 55.64ZM201.784 56.472C200.376 56.472 199.224 56.0667 198.328 55.256C197.474 54.4453 197.048 53.4853 197.048 52.376C197.048 52.0347 197.09 51.7573 197.176 51.544C198.541 51.5013 199.757 51.224 200.824 50.712C201.89 50.1573 202.85 49.304 203.704 48.152C204.557 47 205.368 45.464 206.135 43.544C206.904 41.5813 207.672 39.1707 208.44 36.312C209.25 33.4533 210.082 30.0827 210.936 26.2C211.789 22.3173 212.728 17.8373 213.752 12.76L217.464 17.112C216.525 23.2133 215.608 28.44 214.712 32.792C213.816 37.1013 212.92 40.7067 212.024 43.608C211.128 46.4667 210.253 48.7707 209.4 50.52C208.546 52.2267 207.693 53.5067 206.84 54.36C205.986 55.2133 205.133 55.768 204.28 56.024C203.426 56.3227 202.594 56.472 201.784 56.472ZM199.416 30.168C198.178 30.168 197.112 29.8907 196.216 29.336C195.32 28.7387 194.637 27.9067 194.168 26.84C193.698 25.7307 193.464 24.4507 193.464 23C193.464 21.5067 193.741 20.0347 194.296 18.584C194.893 17.1333 195.768 15.832 196.92 14.68C198.114 13.4853 199.586 12.5467 201.336 11.864C203.128 11.1387 205.24 10.776 207.672 10.776C209.549 10.776 211.298 10.9253 212.92 11.224C214.541 11.5227 216.12 11.8427 217.656 12.184C219.234 12.4827 220.856 12.6747 222.52 12.76L218.808 16.344L213.368 15.192L213.048 14.616C211.81 14.2747 210.424 14.104 208.888 14.104C206.37 14.104 204.386 14.872 202.936 16.408C201.485 17.944 200.76 20.184 200.76 23.128C200.76 24.2373 200.888 25.304 201.144 26.328C201.4 27.352 201.762 28.376 202.232 29.4C201.805 29.6987 201.336 29.912 200.824 30.04C200.312 30.1253 199.842 30.168 199.416 30.168ZM233.976 55L230.584 48.664C231.992 40.6853 233.293 33.9227 234.488 28.376C235.725 22.8293 236.877 18.264 237.944 14.68C239.01 11.096 240.056 8.30133 241.08 6.296C242.146 4.29066 243.234 2.904 244.344 2.136C245.496 1.368 246.669 0.983997 247.864 0.983997C249.058 0.983997 249.954 1.34666 250.552 2.072C251.149 2.79733 251.512 3.75733 251.64 4.952C249.89 6.06133 248.29 7.78933 246.84 10.136C245.432 12.4827 244.152 15.32 243 18.648C241.848 21.9333 240.76 25.56 239.736 29.528C238.712 33.496 237.73 37.6347 236.792 41.944C235.896 46.2533 234.957 50.6053 233.976 55ZM281.944 65.24C280.793 65.24 279.769 64.8133 278.873 63.96C278.019 63.1493 277.273 61.8907 276.632 60.184C276.035 58.4773 275.566 56.3013 275.225 53.656C274.883 50.968 274.649 47.832 274.521 44.248H263.513C261.635 47.704 259.95 50.3067 258.457 52.056C256.963 53.8053 255.598 54.9787 254.361 55.576C253.166 56.1733 252.057 56.472 251.033 56.472C249.539 56.472 248.473 56.1307 247.833 55.448C247.193 54.7653 246.873 53.976 246.873 53.08C246.873 52.7387 246.894 52.4613 246.937 52.248C247.022 51.992 247.107 51.7573 247.193 51.544C248.387 51.5013 249.518 51.2453 250.585 50.776C251.694 50.3067 252.782 49.5387 253.849 48.472C254.915 47.4053 256.046 45.9973 257.241 44.248C258.435 42.456 259.715 40.2373 261.081 37.592C262.489 34.9467 264.046 31.832 265.753 28.248C267.502 24.664 269.443 20.5253 271.577 15.832L271.257 15.192C270.659 14.9787 269.827 14.7653 268.761 14.552C267.694 14.296 266.627 14.168 265.561 14.168C262.745 14.168 260.59 15.0213 259.097 16.728C257.603 18.4347 256.835 20.6747 256.793 23.448C256.793 24.6 256.921 25.7307 257.177 26.84C257.475 27.9067 257.966 28.9733 258.649 30.04C258.179 30.296 257.667 30.5093 257.113 30.68C256.558 30.8507 256.003 30.936 255.449 30.936C254.169 30.936 253.081 30.616 252.185 29.976C251.331 29.2933 250.67 28.3973 250.201 27.288C249.774 26.136 249.582 24.856 249.625 23.448C249.625 21.4 250.179 19.416 251.289 17.496C252.398 15.576 254.041 13.9973 256.217 12.76C258.393 11.48 261.081 10.84 264.281 10.84C265.305 10.84 266.563 10.9467 268.057 11.16C269.593 11.3307 271.214 11.544 272.921 11.8C274.627 12.056 276.27 12.2907 277.849 12.504C279.427 12.6747 280.814 12.76 282.009 12.76C282.009 14.3387 281.945 16.28 281.817 18.584C281.731 20.888 281.625 23.4053 281.497 26.136C281.411 28.824 281.39 31.5973 281.433 34.456C281.433 37.3573 281.497 40.216 281.625 43.032C281.795 45.8053 282.073 48.4293 282.457 50.904C282.841 53.3787 283.374 55.576 284.057 57.496C284.739 59.416 285.614 60.9307 286.681 62.04C286.467 62.5947 286.105 63.1067 285.593 63.576C285.123 64.088 284.59 64.4933 283.993 64.792C283.395 65.0907 282.713 65.24 281.944 65.24ZM265.689 39.704H274.457C274.457 38.424 274.478 36.696 274.521 34.52C274.606 32.344 274.691 29.9547 274.777 27.352C274.905 24.7067 275.033 22.0613 275.161 19.416H274.969C273.305 23.64 271.619 27.48 269.913 30.936C268.249 34.3493 266.841 37.272 265.689 39.704ZM316.57 55L312.602 21.336L312.026 21.144L309.21 12.76H318.106L321.498 43.096H321.69L336.73 12.888H345.306L337.69 21.72L320.666 55H316.57ZM295.322 56.472C293.999 56.472 292.933 56.1093 292.122 55.384C291.354 54.7013 290.97 53.8693 290.97 52.888C290.97 52.4187 291.034 52.056 291.162 51.8C292.57 51.7573 293.829 51.4373 294.938 50.84C296.047 50.2427 297.071 49.3253 298.01 48.088C298.991 46.808 299.909 45.1653 300.762 43.16C301.658 41.112 302.533 38.6587 303.386 35.8C304.282 32.9413 305.199 29.592 306.138 25.752C307.119 21.912 308.207 17.5813 309.402 12.76L313.306 17.368C311.813 24.4507 310.383 30.36 309.018 35.096C307.695 39.832 306.415 43.6293 305.178 46.488C303.941 49.3467 302.767 51.48 301.658 52.888C300.549 54.296 299.461 55.2347 298.394 55.704C297.37 56.216 296.346 56.472 295.322 56.472ZM294.81 30.168C293.573 30.168 292.506 29.8907 291.61 29.336C290.714 28.7387 290.031 27.9067 289.562 26.84C289.135 25.7307 288.922 24.4507 288.922 23C288.922 21.5067 289.221 20.0347 289.818 18.584C290.415 17.1333 291.311 15.832 292.506 14.68C293.701 13.4853 295.173 12.5467 296.922 11.864C298.714 11.1387 300.826 10.776 303.258 10.776C305.093 10.776 306.799 10.9253 308.378 11.224C309.999 11.5227 311.578 11.8427 313.114 12.184C314.65 12.4827 316.25 12.6747 317.914 12.76L314.33 16.344L308.89 15.192L308.57 14.616C307.333 14.2747 305.946 14.104 304.41 14.104C301.893 14.104 299.909 14.872 298.458 16.408C297.007 17.944 296.261 20.184 296.218 23.128C296.218 24.2373 296.346 25.304 296.602 26.328C296.858 27.352 297.221 28.376 297.69 29.4C297.221 29.6987 296.73 29.912 296.218 30.04C295.749 30.1253 295.279 30.168 294.81 30.168ZM339.61 65.112C338.799 65.112 338.053 64.92 337.37 64.536C336.73 64.152 336.175 63.512 335.706 62.616C335.279 61.7627 334.938 60.5893 334.682 59.096C334.469 57.6453 334.383 55.8747 334.426 53.784C334.426 51.6507 334.533 48.9627 334.746 45.72C334.959 42.4773 335.322 38.7653 335.834 34.584C336.389 30.36 337.157 25.7733 338.138 20.824L337.818 20.44L336.794 12.888H345.754C345.327 15.2773 344.858 17.9653 344.346 20.952C343.834 23.9387 343.343 27.032 342.874 30.232C342.405 33.432 342.021 36.5893 341.722 39.704C341.423 42.8187 341.274 45.72 341.274 48.408C341.231 51.8213 341.445 54.7227 341.914 57.112C342.383 59.5013 343.13 61.2507 344.154 62.36C343.941 62.872 343.599 63.3413 343.13 63.768C342.661 64.1947 342.127 64.5147 341.53 64.728C340.933 64.984 340.293 65.112 339.61 65.112ZM375.372 56.408C373.324 56.408 371.446 56.1307 369.74 55.576C368.033 55.064 366.561 54.3173 365.324 53.336C364.129 52.3547 363.19 51.1813 362.508 49.816C361.868 48.408 361.548 46.8507 361.548 45.144C361.548 43.3947 361.889 41.752 362.572 40.216C363.297 38.68 364.364 37.272 365.772 35.992C367.18 34.6693 368.929 33.5387 371.02 32.6C369.697 31.832 368.694 30.7653 368.012 29.4C367.372 28.0347 367.052 26.456 367.052 24.664C367.094 23.2133 367.5 21.8053 368.268 20.44C369.036 19.0747 370.06 17.8373 371.34 16.728C372.62 15.6187 374.006 14.8507 375.5 14.424L379.532 15.576C377.441 17.0267 376.012 18.584 375.244 20.248C374.476 21.8693 374.07 23.4053 374.028 24.856C373.985 26.008 374.113 27.0747 374.412 28.056C374.71 29.0373 375.18 29.9547 375.82 30.808C376.161 30.808 376.652 30.808 377.292 30.808C377.974 30.808 378.678 30.8293 379.404 30.872C380.172 30.872 380.812 30.872 381.324 30.872C381.921 30.872 382.753 30.872 383.819 30.872C384.929 30.8293 385.932 30.744 386.828 30.616C386.913 30.8293 386.977 31.0427 387.02 31.256C387.062 31.4267 387.084 31.64 387.084 31.896C387.084 33.048 386.636 33.9867 385.74 34.712C384.886 35.3947 383.67 35.736 382.092 35.736C381.068 35.736 380.065 35.672 379.083 35.544C378.102 35.3733 376.929 35.1173 375.564 34.776C373.558 36.0133 372.044 37.3787 371.02 38.872C370.038 40.3653 369.548 41.9867 369.548 43.736C369.548 46.0827 370.316 47.8533 371.852 49.048C373.388 50.2 375.265 50.776 377.484 50.776C379.318 50.776 381.11 50.392 382.86 49.624C384.609 48.856 386.124 47.896 387.404 46.744C387.788 46.9573 388.065 47.2773 388.236 47.704C388.406 48.088 388.492 48.5147 388.492 48.984C388.492 49.9653 388.129 50.904 387.404 51.8C386.721 52.696 385.761 53.4853 384.524 54.168C383.329 54.8507 381.942 55.384 380.364 55.768C378.785 56.1947 377.121 56.408 375.372 56.408ZM356.492 30.04C355.169 30.04 354.038 29.7413 353.1 29.144C352.161 28.504 351.436 27.6293 350.924 26.52C350.454 25.368 350.22 24.0453 350.22 22.552C350.22 21.0587 350.497 19.5653 351.052 18.072C351.606 16.536 352.481 15.1707 353.676 13.976C354.87 12.7813 356.385 11.8213 358.22 11.096C360.054 10.3707 362.23 10.008 364.748 10.008C367.137 10.008 369.462 10.1787 371.724 10.52C373.985 10.8613 376.204 11.224 378.38 11.608C380.556 11.9493 382.668 12.12 384.716 12.12C386.38 12.12 387.873 11.992 389.196 11.736C390.561 11.48 391.841 10.7973 393.036 9.688C393.377 10.072 393.654 10.5627 393.868 11.16C394.124 11.7147 394.23 12.2693 394.188 12.824C394.188 13.6773 393.953 14.5307 393.484 15.384C393.057 16.1947 392.332 16.8773 391.308 17.432C390.326 17.944 389.046 18.2 387.468 18.2C386.316 18.2 385.036 18.072 383.628 17.816C382.262 17.56 380.79 17.1973 379.212 16.728C377.633 16.216 375.926 15.64 374.092 15L373.964 14.744C372.684 14.2747 371.446 13.8907 370.252 13.592C369.057 13.2933 367.862 13.144 366.668 13.144C363.766 13.144 361.526 13.9547 359.948 15.576C358.369 17.1973 357.58 19.4587 357.58 22.36C357.58 23.5547 357.729 24.728 358.028 25.88C358.369 27.032 358.86 28.1413 359.5 29.208C359.116 29.5067 358.668 29.72 358.156 29.848C357.686 29.976 357.132 30.04 356.492 30.04Z" fill="black"/>
</svg>
